<svg width="60" height="60" viewBox="0 0 60 60" fill="none" xmlns="http://www.w3.org/2000/svg">
    <g clip-path="url(#clip0)">
        <rect width="60" height="60" fill="#0E131D"/>
        <path d="M21.6514 32.9189L23.5264 18.7978L7.2373 7.48926L22.1201 12.5283L25.6357 7.13769L38.4678 -0.831055L66.7686 14.7549L68.2334 38.5439L55.6358 56.0635L45.6748 57.5869L50.8311 48.1533V39.0713L47.0811 31.9814L43.2725 29.4619L37.4131 35.4971V41.8838L32.8428 46.1611L27.042 46.8643L24.4639 48.3291L20.2451 46.9814L18.4873 40.6533L21.6514 36.2002V32.9189Z" fill="white"/>
        <path d="M47.667 7.37248C44.5616 6.72795 41.1631 6.90373 41.1631 6.90373C41.1631 6.90373 40.0499 12.06 33.1358 13.4076C33.1944 13.4076 42.2764 16.5131 47.667 7.37248Z" fill="#94A6C3"/>
        <path d="M50.4795 54.1303C54.2295 51.2007 57.042 47.1577 58.3311 42.5874C58.3897 42.4116 58.917 42.1186 59.2686 41.8843C59.8545 41.5327 60.4404 41.2397 60.5576 40.771C60.792 39.4233 60.9092 38.0171 60.9092 36.6108C60.9092 36.0835 60.3819 35.5561 59.8545 35.0288C59.4444 34.6772 59.0342 34.2671 59.0342 33.9741C58.4483 28.6421 55.9873 23.6616 52.0615 20.0288L51.6514 20.4389C55.46 24.0132 57.9209 28.8764 58.4483 34.0327C58.5069 34.5014 58.9756 34.9702 59.4444 35.4389C59.8545 35.7905 60.3233 36.3179 60.3233 36.5522C60.3233 37.8999 60.2061 39.2475 59.9717 40.5952C59.9131 40.8296 59.3858 41.0639 58.9756 41.2983C58.3897 41.5913 57.8623 41.8843 57.7451 42.353C56.3389 47.3335 53.1162 51.6694 48.8389 54.4819C49.6006 52.8413 52.0029 47.5093 53.292 44.8139L53.0576 36.1421L45.6162 28.935L41.3975 29.521L36.7686 37.021C36.7686 37.021 38.9365 39.7749 35.8897 42.9975C32.9014 46.1616 30.5576 46.8647 30.5576 46.8647L28.3897 45.6929C29.0342 44.8725 30.3232 43.6421 31.3193 42.8218C33.0186 41.4155 34.7178 41.2983 34.7178 39.7749C34.7764 36.6108 31.3779 37.4897 31.3779 37.4897L30.1475 38.6616L29.6201 42.9975L27.042 46.2202L26.749 46.1616L22.5303 45.2241C22.5303 45.2241 25.1084 43.8764 25.5186 42.353C25.9287 40.8882 24.6982 36.0249 24.6397 35.7319C24.6982 35.7905 25.8701 36.7866 26.3975 38.4272C27.335 35.8491 28.5654 33.3882 28.917 33.1538C29.2686 32.9194 34.0147 30.3999 34.0147 30.3999L32.4326 34.56L33.6045 33.9155L36.417 27.0014C36.417 27.0014 39.1709 25.6538 41.2217 25.6538C44.9131 25.5952 50.3623 21.0835 47.9014 12.9975C48.6045 13.2905 60.792 19.3843 62.9014 31.3374C64.4834 40.5366 59.2686 49.1499 50.4795 54.1303Z" fill="#94A6C3"/>
        <path d="M36.5344 8.66136C37.8821 7.07933 37.3547 4.73558 37.3547 4.73558L33.429 10.5364C33.3704 10.5364 34.8352 10.595 36.5344 8.66136Z" fill="#233B58"/>
        <path d="M23.3508 40.3607L23.8196 38.0169C23.8196 38.0169 21.886 41.4154 21.7102 41.8841C21.5344 42.4115 21.8274 43.349 22.5891 43.2904C23.3508 43.2318 24.2883 42.1185 24.2883 41.2982C24.2883 40.2435 23.3508 40.3607 23.3508 40.3607Z" fill="#233B58"/>
        <path d="M58.1555 3.09502C58.1555 3.09502 61.0852 3.21221 64.1321 3.56377C57.2766 -1.82685 50.7727 -3.40889 45.4992 -3.40889C38.2336 -3.40889 33.3117 -0.420605 33.0188 -0.244823L35.3039 -3.87764C35.3039 -3.87764 26.1633 -4.75654 22.9406 4.91143C22.1203 2.86065 21.3586 -0.127636 21.3586 -0.127636C21.3586 -0.127636 16.6125 4.03252 18.8391 10.9466C13.3898 8.95439 5.59688 6.20049 5.30391 6.14189C4.89375 6.0833 4.77656 6.25908 4.77656 6.25908C4.77656 6.25908 4.65937 6.43486 5.01094 6.72783C5.65547 7.25518 17.9602 16.3372 20.6555 18.095C20.0695 20.2044 20.0695 21.2005 20.6555 22.1966C21.4758 23.5442 21.5344 24.2474 21.4172 25.2435C21.3 26.2395 20.2453 34.8528 20.0109 35.9075C19.7766 36.9622 17.3156 40.7122 17.4328 41.8255C17.55 42.9388 19.0734 47.6849 20.4211 48.2122C21.4172 48.5638 23.8781 49.3255 25.5188 49.3255C26.1047 49.3255 26.632 49.2083 26.8664 48.9739C27.8625 48.095 28.1555 47.9192 28.8586 47.9192C28.9172 47.9192 28.9758 47.9192 29.0344 47.9192C29.3274 47.9192 29.6789 47.9778 30.0891 47.9778C31.0266 47.9778 32.257 47.802 33.136 46.9817C34.425 45.6927 36.6516 43.9349 37.3547 43.1145C38.2336 42.0013 38.7024 40.4778 38.468 38.9544C38.2922 37.5481 39.0539 36.3177 39.9328 35.0872C41.0461 33.6224 43.0969 30.9856 43.0969 30.9856C47.1399 34.0325 49.6594 38.6614 49.6594 43.8177C49.6594 52.9583 41.6906 60.3411 31.8469 60.3411C30.3235 60.3411 28.8586 60.1653 27.3938 59.8138C31.9055 61.3958 35.7141 61.9231 38.8195 61.9231C45.4406 61.9231 48.9563 59.5208 48.9563 59.5208C48.9563 59.5208 47.7258 61.1028 45.7336 62.9192C45.7922 62.9192 45.7922 62.9192 45.7922 62.9192C56.7492 61.3958 62.0813 52.3724 62.0813 52.3724C62.0813 52.3724 61.6711 55.302 61.1438 57.2942C75.7336 46.3372 73.2727 32.6263 73.2141 32.1575C73.3313 32.3333 74.7961 34.0911 75.5578 35.0286C77.9016 10.888 58.1555 3.09502 58.1555 3.09502ZM35.7141 41.6497C35.4797 41.9427 34.4836 42.8216 33.7805 43.4661C33.0774 44.1106 32.3156 44.7552 31.7297 45.3411C31.4953 45.5755 31.0266 45.6927 30.3234 45.6927C30.0891 45.6927 29.8547 45.6927 29.6789 45.6927C29.5617 45.6927 29.4445 45.6927 29.3274 45.6927C29.2102 45.6927 29.1516 45.6927 29.093 45.6927C28.9172 45.6927 28.7414 45.6927 28.5656 45.6927C29.4445 44.5208 32.0227 41.8255 32.9016 41.2395C33.9563 40.5364 34.4836 39.8333 33.8391 38.6028C33.1945 37.3724 31.4953 37.6653 31.4953 37.6653C31.4953 37.6653 32.4914 37.2552 33.3703 37.2552C32.257 36.9622 30.8508 37.2552 30.2063 37.8997C29.5031 38.5442 29.6203 40.8294 29.3274 42.2942C29.0344 43.8177 28.0383 44.5794 26.5149 45.9856C25.6945 46.7474 25.1086 46.9817 24.6399 46.9817C23.6438 46.8059 22.4719 46.513 21.6516 46.22C21.0656 45.4583 20.1867 42.9388 19.9523 41.8841C20.1281 41.2981 20.8313 40.0677 21.1828 39.3645C21.8859 38.0169 22.2961 37.2552 22.4133 36.552C22.6477 35.556 23.4094 29.4036 23.7024 26.8255C24.4641 27.8216 25.5188 29.4622 25.2844 30.5169C26.9836 28.1145 25.7531 25.7708 25.1672 24.8333C24.6399 23.8958 23.9367 22.0208 24.5227 20.0286C25.1086 18.0364 27.218 12.5286 27.218 12.5286C27.218 12.5286 27.9211 13.7591 28.9172 13.5247C29.9133 13.2903 37.9406 1.22002 37.9406 1.22002C37.9406 1.22002 40.1086 5.96611 37.8235 9.42314C35.4797 12.8802 33.1945 13.5247 33.1945 13.5247C33.1945 13.5247 36.4172 14.1106 39.4055 11.9427C40.636 14.8138 41.8078 17.802 41.8664 18.2122C41.6906 18.6224 39.3469 24.2474 39.1125 24.5989C38.9953 24.7161 38.175 24.9505 37.5891 25.0677C36.593 25.3606 36.007 25.5364 35.7727 25.7122C35.3625 26.0638 33.4875 31.22 32.6086 33.7395C31.5539 34.0325 30.4992 34.6184 29.7375 35.7903C30.1477 35.4974 31.4367 35.3216 32.3742 35.2044C33.1945 35.1458 35.7141 36.4934 36.3586 39.013C36.3586 39.0716 36.3586 39.0716 36.3586 39.1302C36.4758 40.0677 36.1828 40.9466 35.7141 41.6497ZM30.2063 42.3528C30.7336 41.5911 30.675 40.302 30.7336 39.8919C30.7922 39.4817 30.9094 38.72 31.3781 38.6028C31.8469 38.4856 32.9602 38.6614 32.9602 39.4817C32.9602 40.2434 32.1399 40.4192 31.5539 40.9466C31.1438 41.3567 30.3235 42.2356 30.2063 42.3528ZM53.5852 31.1614C54.1711 28.1731 54.2297 25.595 54.0539 23.4856C56.3391 26.5325 57.7453 30.2239 58.1555 34.0325C58.2141 34.5013 58.6828 34.97 59.1516 35.4388C59.5617 35.7903 60.0305 36.2591 60.0305 36.552C60.0305 37.8997 59.9133 39.2474 59.6789 40.595C59.6203 40.7708 59.093 41.0638 58.6828 41.2981C58.0969 41.5911 57.5696 41.8841 57.4524 42.3528C56.1633 46.8645 53.4094 50.8489 49.718 53.6614C55.1672 47.9778 57.8039 38.6028 53.5852 31.1614ZM49.8938 54.1888C53.7024 51.2591 56.632 47.1575 57.9211 42.5286C57.9797 42.3528 58.5071 42.0599 58.8586 41.8255C59.4446 41.5325 60.0305 41.1809 60.1477 40.7122C60.3821 39.3645 60.4992 37.9583 60.4992 36.552C60.4992 36.0247 59.9719 35.4974 59.4446 34.97C59.1516 34.6185 58.6828 34.2083 58.6828 33.9153C58.2141 29.638 56.5149 25.595 53.8781 22.2552C52.7063 15.2239 48.0188 13.056 47.9016 12.9974C48.0188 13.1731 51.0656 17.5677 48.9563 22.7239C46.7883 27.9388 41.2219 27.1185 40.7531 27.177C40.2844 27.177 38.468 29.5208 36.1828 33.8567C35.8899 33.7395 34.6594 33.4466 33.2531 33.6809C34.3078 30.7513 35.8899 26.5911 36.1828 26.2395C36.3 26.1224 37.1789 25.888 37.7649 25.7122C38.8781 25.4192 39.4055 25.2435 39.5813 25.0091C39.6985 24.8333 40.2844 23.4856 40.8703 22.0794C41.3977 22.0794 42.7453 21.9622 42.8625 21.9036C42.9797 21.7864 44.093 18.9153 44.093 18.5638C44.093 18.2708 41.8078 12.5872 40.9289 10.4192C41.3391 9.95049 41.7492 9.36455 42.1594 8.72002C54.1711 10.0091 63.5461 20.2044 63.5461 32.5677C63.5461 42.0599 57.9797 50.3216 49.8938 54.1888Z" fill="#233B58"/>
        <path d="M34.3078 22.5481C35.4211 21.2591 34.8352 18.8567 32.7844 18.4466C33.3117 17.2161 34.0735 14.7552 34.0735 14.7552C34.0735 14.7552 28.0969 24.1301 27.5695 24.3059C27.0422 24.4817 26.5149 22.4309 26.5149 22.4309C25.4016 26.7083 28.3899 27.2942 28.7414 25.9466C30.382 25.5364 33.1945 23.7786 34.3078 22.5481Z" fill="#233B58"/>
        <path d="M29.21 24.8335L32.2568 19.6187C32.2568 19.6187 34.0147 20.4976 33.1357 21.9038C32.0225 23.5444 29.21 24.8335 29.21 24.8335Z" fill="#FFD923"/>
        <path d="M66.8858 48.9741C66.0069 50.1459 65.0108 51.3764 63.8389 52.5483C71.3975 38.017 64.1905 24.7163 63.8975 24.1889C64.4248 24.7163 64.9522 25.3022 65.4209 25.8295C71.2217 32.2749 71.9248 41.9428 66.8858 48.9741Z" fill="#D82122"/>
        <path d="M73.917 30.2826C71.2803 23.1928 67.5303 17.1576 59.2686 11.7084C51.2998 6.43499 42.7451 6.84515 42.2764 6.90374C42.2178 6.90374 42.1592 6.90374 42.1592 6.90374C42.4522 6.78656 42.7451 6.72796 43.0381 6.66937C44.8545 6.08343 47.1983 5.61468 49.542 5.32171C55.753 4.44281 62.0225 6.55218 66.2998 11.0639C66.3584 11.1225 66.3584 11.1225 66.417 11.1811C71.2803 16.3373 73.7998 22.7826 73.917 30.2826Z" fill="#D82122"/>
        <path d="M57.3936 1.27889C48.6631 -0.36173 43.0381 0.458582 38.9951 1.98202C38.878 1.51327 38.4678 0.575769 38.1162 -0.185949C36.8858 1.27889 35.5967 3.03671 34.7764 4.14999C32.5498 5.67342 31.6123 7.13827 31.6123 7.13827C32.9014 2.74374 36.6514 -0.537512 41.2217 -1.35782C42.5108 -1.5922 43.917 -1.70939 45.4405 -1.70939C49.4834 -1.65079 53.5264 -0.654699 57.3936 1.27889Z" fill="#D82122"/>
        <path d="M25.1085 12.5289C18.253 12.2945 20.5381 4.32577 20.6553 3.85702C20.6553 3.91561 21.1241 10.1265 25.1085 12.5289Z" fill="#D82122"/>
        <path d="M31.8467 -1.82666C26.5733 1.3374 27.628 8.89599 27.628 8.89599C22.5889 1.22021 31.4366 -1.65088 31.8467 -1.82666Z" fill="#D82122"/>
        <path d="M23.1748 14.6382C23.5264 14.9312 23.8779 15.4585 23.4678 16.2202C23.2334 16.6304 22.8818 16.5718 22.3545 16.3374C21.6514 15.9858 17.4326 13.5249 13.624 11.0054C17.96 12.5288 22.3545 14.1694 23.0576 14.521C23.0576 14.521 23.1162 14.5796 23.1748 14.6382Z" fill="white"/>
        <path d="M21.4453 1.11328L21.6797 -0.644531L28.3301 -0.966797L23.1152 6.29883L21.4453 1.11328Z" fill="#233A58"/>
        <path d="M59.0332 1.55273L56.9824 -1.875H62.4902L62.2852 6.62109L56.6602 3.28125L59.0332 1.55273Z" fill="#233A58"/>
        <path d="M47.2266 58.5059L42.1289 63.3105L60.0586 62.9883L64.1895 51.0352L47.2266 58.5059Z" fill="#233A58"/>
    </g>
    <defs>
        <clipPath id="clip0">
            <rect width="60" height="60" rx="30" fill="white"/>
        </clipPath>
    </defs>
</svg>
